<?xml version="1.0" encoding="utf-8"?>
<!-- Uploaded to: SVG Repo, www.svgrepo.com, Generator: SVG Repo Mixer Tools -->
<svg width="800px" height="800px" viewBox="0 -37.34 409.918 409.918" xmlns="http://www.w3.org/2000/svg"><defs><style>.a{fill:#ffffff;}.b{fill:#b3b3b3;}.c{fill:#f4b467;}.d{fill:#7a7473;}.e{fill:#b5886a;}.f{fill:#211715;}</style></defs><path class="a" d="M7.438,256.237c-1.23,1.468-2.461,2.952-3.74,4.481-1.216,1.454-2.358,3.7-1.259,5.852,1.179,2.308,3.8,1.813,5.354.564.083.39.139.644.139.644.951,4.348,6.062,2.94,7.766.654l.736-.989.387,1.235c1.762,5.631,7.883,1.142,10.278-.736,2.518-1.973,6.921-4.194,10.161-3.306,3.7,1.012,6.027,4.117,9.975,4.485a11.7,11.7,0,0,0,6.04-1.155c1.616-.763,2.875-2.008,4.511-2.57a23.82,23.82,0,0,1,5.7-.978h5.969c-.631-6.218-1.213-14.8-1.522-20.962l-.376.023c-4.134.253-9.559,1.128-13.694,1.381-3.282.2-6.256-1.151-9.467-1.7a48.185,48.185,0,0,0-6.987-.538,80.379,80.379,0,0,0-14.8.883c-4.327.779-6.717,3.071-9.574,6.248C11.067,251.94,9.253,254.071,7.438,256.237Z"/><path class="a" d="M256.053,187.861c-3.12-2.52-7.883-10.852-9.426-15.633-4.023-3.456-5.9-.21-8.606-.027-3.047-1.045-5.543-2.117-10.291-4.244-5.364-2.4-12.176-5.485-16.976-8.487-3.9-4.42-16.036-20.414-19.24-25.568l-.959-1.547c-1.346,1.411-3.358,2.782-5.693,4.837A177.206,177.206,0,0,1,168.121,149.4c.763,1.284,1.256,2.119,1.256,2.119,2.9,4.922,18.838,23.476,23.58,26.135a19.591,19.591,0,0,1-3.13-2.462c1.885,1.481,3.13,2.462,3.13,2.462,5.051,3.975,37.168,9.779,42.172,11.1,4.423.474,5.6,4.412,8.214,4.581l1.494.1c3.511-2.368,6.987-5.563,11.059-5.538"/><path class="a" d="M386.428,310.975c-3.934,0-336.652.164-381.026.164l.444-51.767c9.549,0,376.648.12,380.582.12Z"/><path class="a" d="M258.221,150.753a8.53,8.53,0,0,0,1.016-2.654c.457-2.306.033-5.174,3.227-5.866a5.578,5.578,0,0,1,3.568.561c5.634,2.7,12.518-2,17.485-5.384a44.537,44.537,0,0,1,8.2-5.261,51.332,51.332,0,0,1,9.531-3.711l-.234.48c-2.624,5.385-1.325,16.306,1.267,21.242l1.035,1.972c-2.672,7.093-3.452,15.977-2.782,25.439a7.372,7.372,0,0,1,1.6.919,6.1,6.1,0,0,1,2.366,4.1,6.478,6.478,0,0,1-3.074,5.864A16.262,16.262,0,0,1,291,191.122l-3.25,6.452c-2.657,4.932-2.347,12.3.57,19.566a54.921,54.921,0,0,0-7.215,5.421,104.942,104.942,0,0,0-31.637-18.316,118.462,118.462,0,0,0-18.325-5.205c-2.187-.435-4.263-.874-6.27-1.34,6.3-1.071,10.538-.423,15.938-2.159,5.056-1.624,9.583-7.834,15.292-7.641-3.246-2.575-8.316-11.558-9.646-16.239a11.479,11.479,0,0,1,1.009-8.53c1.949-3.969,7.312-9.007,9.841-11.054A11.04,11.04,0,0,0,258.221,150.753Z"/><path class="b" d="M348.164,153.013c4.065,9.376,5.1,19.48,1.388,26.285-.152,13.215-9.826,24.637-21.83,31.021-5.776,3.754-14.822,6.311-21.2,5.611-5.805-.636-9.562-2.027-12.525-1.415a18.081,18.081,0,0,0-5.677,2.623c-2.916-7.261-3.226-14.632-.569-19.564l3.25-6.452a16.262,16.262,0,0,0,10.427-2.668,6.478,6.478,0,0,0,3.074-5.864,6.1,6.1,0,0,0-2.366-4.1,7.372,7.372,0,0,0-1.6-.919c-.67-9.462.11-18.346,2.782-25.439l-1.035-1.972c-2.592-4.936-3.891-15.857-1.267-21.242l.234-.48c9.774-2.658,17.869-1.107,25.959,2.076C336.23,134.064,343.881,143.135,348.164,153.013Z"/><path class="c" d="M163.8,195.848a100.929,100.929,0,0,1,25.97-4.833c8.244-.98,16.815,1.7,24.667,3.777a134.11,134.11,0,0,0,16.7,4.248,118.462,118.462,0,0,1,18.325,5.205,104.076,104.076,0,0,1,33.214,19.7c-.586,1.38-3.31,5.942-4.869,9.021-2.329,7.935-2,16.742-9.747,22.047-15.115,10.353-71.613,12.151-92.837,14.8-13.107,1.639-92.169,3.753-103.669,2.753l-.746-.065-.134-.263c-.991-1.935-2.239-18.639-2.747-28.789-.246.019-.377.027-.377.027-4.134.253-9.559,1.128-13.694,1.381-3.209.2-6.124-1.092-9.254-1.659l-.056-.409c-.9-6.1-1.1-33.233.7-39.7,19.11-1.19,42.67,1.1,65.37-.43,6.12.41,11.02-1.18,16.29-1.18Z"/><path class="d" d="M127.871,69.074c-6.3,7.806-29.464-1.72-26.683-4.871,3.913-.659,6.282-4.871,6.725-8.816s.113-8.125.679-12.049c.907-6.158,4.645-12.358,9.444-14.469a10.23,10.23,0,0,1,5.87-.6s10.311,2.3,10.088,17.187S127.871,69.074,127.871,69.074Z"/><path class="d" d="M124.021,27.973a44.47,44.47,0,0,0-2.564,11.733c-.39,4.687-.423,12.374,2.2,18.6a15.338,15.338,0,0,1,.606-4.081,9.921,9.921,0,0,1,1.465-2.873,4.278,4.278,0,0,1,3.365-1.517,4.578,4.578,0,0,1,2.151.586,45.229,45.229,0,0,0,12.409-7.208c1.158-1,4-3.893,5.041-5.017a19.411,19.411,0,0,0,2.549-3.568l.336-.629.181.13c11.241,8.124,37.019,19.2,49.881,20.709a73.921,73.921,0,0,0,1.381-11.815,40.446,40.446,0,0,0-15.414-32.3,39.652,39.652,0,0,0-23.766-8.656A41.386,41.386,0,0,0,149.527,3.9a39.8,39.8,0,0,0-6.109,2.541,46.887,46.887,0,0,0-7.056,4.437c-.852.706-2.108,1.873-2.936,2.672a38.165,38.165,0,0,0-9.4,14.42Z"/><path class="a" d="M151.755,34.131l-.517.5a19.411,19.411,0,0,1-2.549,3.568c-1.039,1.124-3.883,4.021-5.041,5.017a45.285,45.285,0,0,1-12.413,7.213,4.5,4.5,0,0,0-2.147-.591,4.275,4.275,0,0,0-3.365,1.517,9.921,9.921,0,0,0-1.465,2.873,12.409,12.409,0,0,0,.133,8.057,18.2,18.2,0,0,0,2.879,5.48,21.361,21.361,0,0,0,3.463,3.118l1.853,1.129.209.526c.192.481.411.983.644,1.494a33.1,33.1,0,0,1-3.893,4.5c-.492,9.019,8.049,26.624,19.264,27.447l.664.183c5.348-3.476,7.154-3.892,9.969-8.092,0,0,.132-.481.289-1.336,10.067,2.452,21.138-.963,28.54-8.376,8.763-8.777,12.338-23.311,12.7-33.6C187.907,52.956,162.806,42.117,151.755,34.131Z"/><path class="a" d="M78.926,126.517c-3.7,10.772-6.317,22.133-9.148,33.076a204.554,204.554,0,0,0-6.03,33.323,88.9,88.9,0,0,0-.225,9.844c14.907.17,31.213.97,47.1-.1,6.12.41,11.02-1.18,16.29-1.18l13.423-26.165c3.892-11.789,11.974-15.922,16.554-23.933a25.265,25.265,0,0,0,2.462-6.442c.265.515.411.794.411.794a39.521,39.521,0,0,0,2.843,4.837,1.864,1.864,0,0,0,2.195.627c4.136-1.652,17.024-11.332,20.064-14,5.831-5.129,9.645-6,6.132-13.877-2.36-5.29-4.422-10.813-7.558-15.632-2.31-3.551-5.054-6.634-6.634-11.057l-17.359,1.442c-2.815,4.2-4.621,4.616-9.968,8.092l-.665-.183c-11.4-.836-20.04-19.018-19.232-27.884-6.327,3.916-13.266,6.433-18.358,10.557-4.549,3.683-9.479,7.587-13.843,11.451-7.339,6.5-14.631,15.589-17.993,25.1Q79.153,125.857,78.926,126.517Z"/><path class="e" d="M386.812,333.163c0-18.924-.218-117.432-.228-138.949a1.541,1.541,0,0,1,1.548-1.541h18a1.542,1.542,0,0,1,1.548,1.539c.025,21.215.236,121.3.236,139.088Z"/><path class="f" d="M235.537,214.054c14.638,5.221,28.066,13.514,40.775,22.343,2.119,1.472,4.121-1.994,2.019-3.454-13.011-9.038-26.749-17.4-41.731-22.746-2.429-.866-3.475,3-1.063,3.857Z"/><path class="f" d="M164.333,197.777a86.6,86.6,0,0,1,19.733-4.286A62.977,62.977,0,0,1,197.159,193a80.794,80.794,0,0,1,12.991,2.716c3.954,1.06,7.84,2.346,11.812,3.342,4.177,1.047,8.417,1.788,12.607,2.772a114.829,114.829,0,0,1,24,8.473,98.781,98.781,0,0,1,22.7,15.058l-.313-2.424c-.94,2.134-2.227,4.136-3.351,6.175a20.122,20.122,0,0,0-1.817,3.66c-.373,1.226-.639,2.49-.908,3.741-1.032,4.806-1.7,10.2-4.94,14.119a19.831,19.831,0,0,1-8.2,5.351,76.665,76.665,0,0,1-10.436,3.043c-18.125,4.139-36.918,5.346-55.4,6.872-11.875.98-23.694,2.359-35.6,2.943-16.166.794-32.351,1.257-48.531,1.612-7.744.17-15.489.306-23.235.359-5.089.034-10.2.1-15.28-.135-.816-.037-1.628-.1-2.442-.17l1.727.99c-.365-.713.061.475-.116-.3-.08-.347-.166-.691-.232-1.041-.077-.4-.141-.809-.2-1.215q-.052-.352-.1-.708c-.046-.334.065.5-.008-.06-.022-.179-.045-.357-.068-.536-.36-2.9-.618-5.811-.857-8.721-.506-6.16-.916-12.334-1.16-18.51-.043-1.086-.084-2.172-.092-3.259,0-.326.011-.653.009-.979,0-.674-.069.326-.211.523l-1.727.99c10.553-1.147,21.212-1.592,31.8-2.329,12.1-.842,24.252-1.514,36.318-2.812,3.625-.39,7.214-1.05,10.828-1.528,6.759-.894,13.543-1.586,20.315-2.368a2.061,2.061,0,0,0,2-2,2.013,2.013,0,0,0-2-2c-5.971.689-11.95,1.31-17.914,2.059-2.978.374-5.953.776-8.92,1.23-.831.127-1.663.255-2.492.392-.164.027-.679.087.035,0-.171.022-.343.045-.515.066-4.539.557-9.113.874-13.671,1.228-13.522,1.052-27.057,1.939-40.586,2.891-4.582.322-9.167.624-13.742,1.033-.934.084-2.18.039-2.868.727a2.875,2.875,0,0,0-.654,2.081c-.057,1.793.065,3.6.146,5.394q.414,9.222,1.208,18.425c.231,2.7.481,5.4.832,8.092a15.068,15.068,0,0,0,1.061,4.992c.873,1.659,3.663,1.407,5.378,1.465,1.858.062,3.718.085,5.577.1,5.42.04,10.841-.013,16.26-.085q20.954-.281,41.9-1c11.126-.37,22.28-.694,33.381-1.552,4.246-.328,8.471-.9,12.713-1.283,7.171-.65,14.351-1.2,21.525-1.819,15.549-1.346,31.3-2.7,46.545-6.162,5.419-1.231,11.141-2.7,15.945-5.6a19.224,19.224,0,0,0,7.872-9.413c1.643-4.016,2.162-8.361,3.194-12.547.931-3.776,3.609-6.869,5.166-10.4a2.068,2.068,0,0,0-.313-2.423c-12.711-11.363-28.346-19.216-44.763-23.63-4.4-1.182-8.872-1.975-13.307-2.986-4.036-.92-7.938-2.217-11.929-3.283-4.356-1.164-8.7-2.4-13.16-3.133a55.186,55.186,0,0,0-13.565-.324,92.794,92.794,0,0,0-24.1,4.746c-2.4.871-1.365,4.738,1.063,3.857Z"/><path class="f" d="M46.478,242.261c-.038-.265.046.468-.008-.084-.019-.191-.043-.381-.062-.572-.044-.447-.081-.894-.114-1.341-.08-1.083-.138-2.167-.187-3.252-.126-2.829-.186-5.661-.214-8.493-.059-6.122,0-12.265.429-18.374.095-1.35.211-2.7.381-4.04a3.9,3.9,0,0,1,.057-.4c.041-.253.08-.506.126-.758.08-.445.174-.887.292-1.324l-1.928,1.468c21.451-1.307,42.955.98,64.417-.368,1.554-.1,3.112.038,4.671-.036,1.448-.068,2.889-.226,4.326-.408a69.985,69.985,0,0,1,8.246-.8c2.573-.02,2.579-4.02,0-4-5.065.039-10.02,1.374-15.1,1.235-2.78-.076-5.576.21-8.358.309s-5.588.152-8.382.173c-10.955.082-21.9-.353-32.857-.449-5.657-.049-11.317,0-16.965.342a2.062,2.062,0,0,0-1.929,1.468,35.3,35.3,0,0,0-.9,6.252c-.247,2.932-.367,5.876-.446,8.817-.167,6.22-.154,12.454.1,18.671a69.086,69.086,0,0,0,.544,7.027,2.014,2.014,0,0,0,2.461,1.4,2.051,2.051,0,0,0,1.4-2.46Z"/><path class="f" d="M258.735,261.372q7.987,0,15.974.012l30.323.028,35.06.035,30.093.03c5.253.005,10.518.111,15.77.014.158,0,.315,0,.473,0,2.573,0,2.578-4,0-4q-6.663,0-13.326-.012l-28.961-.029-34.983-.035-31.3-.029q-9.13-.009-18.26-.015h-.868c-2.574,0-2.578,4,0,4Z"/><path class="f" d="M5.4,313.139q10.345,0,20.69,0l33.754-.012,43.362-.017,49.317-.022,52.214-.023,51.474-.024,47.108-.022L342.989,313l28.579-.014,14.036-.006h.824c2.573,0,2.578-4,0-4q-5,0-10,0l-25.374.012-37.3.018-45.58.021-50.776.024-52.352.024-50.285.022-45.17.018-36.4.014q-12.085,0-24.171.006H5.4c-2.574,0-2.578,4,0,4Z"/><path class="f" d="M388.812,333.163q0-10.869-.026-21.738-.029-17.25-.061-34.5-.036-18.939-.071-37.88-.03-15.936-.055-31.874-.009-5.391-.014-10.784a8.11,8.11,0,0,0,0-1.951c-.137-.475-.214.363-.4.238.083.057.405,0,.5,0h16.2a6.351,6.351,0,0,0,1.226,0c-.108.229-.5-.412-.434-.461a2.1,2.1,0,0,0,0,.434c-.019.307,0,.622,0,.93l0,2.1q0,2.546.008,5.09.024,14.719.053,29.44l.069,37.161q.033,17.823.064,35.647.021,12.45.035,24.9,0,1.693,0,3.387c0,2.574,4,2.578,4,0q0-10.731-.026-21.462-.027-17.391-.061-34.78-.035-19.085-.071-38.169-.03-16.049-.059-32.1-.009-5.328-.016-10.658c0-.62.029-1.249,0-1.869a3.64,3.64,0,0,0-3.566-3.592c-1.373-.074-2.77,0-4.144,0-4.47,0-8.943-.05-13.413,0a3.963,3.963,0,0,0-2.822.941,4.458,4.458,0,0,0-1.153,3.574q0,2.277,0,4.552.017,14.308.045,28.617.034,18.9.07,37.808.036,18.46.068,36.921.022,13.2.038,26.4,0,1.838,0,3.674c0,2.573,4,2.578,4,0Z"/><path class="a" d="M108.843,163.617c6.236-2.907,12.4-6.2,17.9-9.121.122.167.191.255.191.255,2.233,2.843,6,9.353,8.529,13.268,2.211,3.415,9.127,15.051,13.554,21.4,2.029.247,30.39,14.783,42.622,16.553,4.032-1.982,12.348-3.485,16.8-3.737,2.944-.167,5.313,1.571,5.555,2.889.456,2.478-2.945,3.821-8.082,4.861,5.592,1.359,15.267,3.978,21.53,5.636,1.973.523,4.683,2.089,4.049,4.772a3.077,3.077,0,0,1-2.8,2.506l.6.557c.933.866.957,2.62.449,4.033a4.121,4.121,0,0,1-3.671,2.533,3.2,3.2,0,0,1,.093,3.242,4.836,4.836,0,0,1-5.213,2.611c-.906-.156-2.125-.383-3.5-.653.124.49.21.828.21.828.391,1.441-1.737,3.6-3.817,3.815-5.076.533-12.377-2.028-15.739-3.329-3.768-1.458-7.326-4.5-10.138-7.122a57.412,57.412,0,0,0-6.887-5.447l-.269-.14c-3.2-1.658-10.016-3.529-13.646-4.742-7.959-2.659-27.412-8.58-31.7-11.581-7.79-6.83-11.076-9.206-17.69-17.375-2.383-2.944-15.141-18.637-17.374-22.27l-.305-.495C102.987,166.255,105.923,164.979,108.843,163.617Z"/><path class="f" d="M190.526,203.753c-6.5-1.371-12.767-3.994-18.863-6.565-5.844-2.465-11.593-5.144-17.377-7.748-1.461-.658-3.134-1.708-4.737-1.948l1.2.919c-6.057-8.717-11.457-17.942-17.027-26.977a90.881,90.881,0,0,0-5.368-8.1,2.012,2.012,0,0,0-2.829,0,2.052,2.052,0,0,0,0,2.828,95.862,95.862,0,0,1,5.442,8.423c1.455,2.363,2.957,4.7,4.416,7.057,3.5,5.666,6.934,11.383,10.64,16.92.741,1.106,1.357,2.375,2.663,2.828.415.144.823.3,1.23.461.249.1-.36-.158.143.061.163.071.327.141.49.213.4.174.8.351,1.193.528q1.461.654,2.916,1.32c5.38,2.451,10.763,4.894,16.215,7.182,6.014,2.524,12.189,5.1,18.594,6.452,2.511.53,3.584-3.325,1.063-3.857Z"/><path class="f" d="M181.893,222.4a80.261,80.261,0,0,0-11.3-4.283q-4.4-1.455-8.812-2.886c-6.856-2.218-13.765-4.377-20.451-7.075-1.112-.449-2.245-.932-3.361-1.506a17.074,17.074,0,0,1-3.362-2.536c-3-2.6-6.047-5.174-8.854-7.994a174.191,174.191,0,0,1-12.036-14.18c-2.369-2.953-4.728-5.914-7.049-8.9a74.473,74.473,0,0,1-4.541-6.184c-1.356-2.182-4.818-.176-3.454,2.019,1.2,1.929,2.644,3.722,4.027,5.519q3.156,4.1,6.394,8.135c3.821,4.789,7.574,9.712,11.725,14.222a103.086,103.086,0,0,0,8.378,7.959c2.566,2.229,4.917,4.589,8.031,6.013,6.477,2.962,13.368,5.078,20.129,7.28,3.354,1.092,6.711,2.171,10.06,3.279,4.168,1.378,8.532,2.579,12.457,4.576,2.289,1.165,4.316-2.285,2.019-3.454Z"/><path class="f" d="M63.483,262.418a30.124,30.124,0,0,0-5.719.887c-1.935.579-3.378,1.831-5.132,2.75a9.262,9.262,0,0,1-5.61,1.034,12.588,12.588,0,0,1-4.455-2.066,17.816,17.816,0,0,0-4.776-2.316,10.193,10.193,0,0,0-5.5.268c-3.166.962-5.577,2.923-8.023,4.579a10.617,10.617,0,0,1-3.691,1.808,1.875,1.875,0,0,1-1.075-.038,2.409,2.409,0,0,1-.755-1.178c-.824-2.423-4.689-1.383-3.857,1.064,1.13,3.319,3.961,4.921,7.362,3.845,2.739-.867,4.758-2.743,7.105-4.279a13.962,13.962,0,0,1,5.285-2.262,6.918,6.918,0,0,1,4.7,1.23,35.868,35.868,0,0,0,4.893,2.693,11.563,11.563,0,0,0,6.186.518,18.079,18.079,0,0,0,6.605-2.947c1.944-1.209,4.221-1.374,6.45-1.59a2.055,2.055,0,0,0,2-2,2.015,2.015,0,0,0-2-2Z"/><path class="f" d="M67.554,241.479c-3.72.242-7.411.8-11.119,1.169a18.793,18.793,0,0,1-5.528,0c-1.867-.366-3.677-.977-5.546-1.335a58.63,58.63,0,0,0-11.737-.695,62.366,62.366,0,0,0-11.939,1.035,16.434,16.434,0,0,0-8.164,4.667c-2.736,2.707-5.182,5.738-7.651,8.686-2.307,2.756-5.9,5.853-5.87,9.748a5.188,5.188,0,0,0,6.4,5.257c3.117-.72,4.889-3.933,6.8-6.216,2.175-2.594,4.379-5.169,6.66-7.67,1.732-1.9-1.089-4.735-2.828-2.828-1.775,1.945-3.5,3.94-5.2,5.945q-1.319,1.551-2.618,3.12c-.783.948-1.61,2.165-2.393,2.953a2.469,2.469,0,0,1-1.99.866c-.841-.18-.927-1.493-.7-2.266.414-1.4,1.583-2.5,2.5-3.6,1.278-1.533,2.555-3.067,3.846-4.589a80.2,80.2,0,0,1,6.511-7.188,13.138,13.138,0,0,1,7.455-3.321,72.722,72.722,0,0,1,10.315-.612,46.42,46.42,0,0,1,10.412.743c1.851.42,3.659,1.01,5.538,1.3a21.707,21.707,0,0,0,5.527.013c3.779-.365,7.536-.943,11.326-1.189,2.556-.166,2.575-4.167,0-4Z"/><path class="f" d="M6,268.309A5.369,5.369,0,0,0,9.724,272.4a7.244,7.244,0,0,0,5.185-.769,7.289,7.289,0,0,0,1.9-1.431c.706-.756,1.475-1.688,2.313-2.632a53.123,53.123,0,0,1,5.648-5.688,2.015,2.015,0,0,0,0-2.829,2.044,2.044,0,0,0-2.828,0,47.355,47.355,0,0,0-4.788,4.725c-.772.856-1.531,1.725-2.3,2.588-.192.217-.394.429-.579.652q-.541.709-.164.206l-.088.1c-.1.088-.2.2-.291.293-.069.063-.14.125-.213.185q.3-.222.12-.092a7.111,7.111,0,0,1-.757.469c-.053.028-.512.241-.24.125s-.2.069-.258.088c-.144.047-.289.089-.436.125-.061.015-.567.117-.248.064s-.182.013-.248.016c-.146.006-.29,0-.435,0-.437,0,.076.058-.032,0a1.3,1.3,0,0,0-.406-.11q-.212-.075.155.072c-.064-.03-.126-.062-.187-.1s-.43-.317-.205-.123-.126-.152-.167-.2q-.139-.162.078.1a2.391,2.391,0,0,1-.127-.2c-.043-.071-.082-.144-.118-.219.071.188.082.213.03.074a5.753,5.753,0,0,1-.185-.643A2,2,0,0,0,6,268.309Z"/><path class="f" d="M24.028,252.232a5.728,5.728,0,0,1,.8.523l-.4-.313a21.424,21.424,0,0,1,2.934,3.32,2.013,2.013,0,0,0,1.414.586,2.037,2.037,0,0,0,1.415-.586,2.011,2.011,0,0,0,.585-1.414l-.071-.532a1.99,1.99,0,0,0-.514-.882c-.591-.7-1.126-1.453-1.729-2.147a8.767,8.767,0,0,0-2.414-2.009,2.1,2.1,0,0,0-1.542-.2,2.04,2.04,0,0,0-1.2.919,2,2,0,0,0,.718,2.737Z"/><path class="f" d="M42.909,204.177c-8.5.008-17.107.139-25.581.835-2.548.21-2.57,4.212,0,4,8.474-.7,17.081-.827,25.581-.835,2.574,0,2.578-4,0-4Z"/><path class="f" d="M192.559,207.741a31.206,31.206,0,0,1,6.807-2.129,61.312,61.312,0,0,1,7.7-1.269,7.432,7.432,0,0,1,3.641.242,3.563,3.563,0,0,1,1.107.7c.249.242.091.075.255.317-.08-.117,0-.025-.035.016-.006.006-.01.028-.022.042s-.012.016-.157.158a4.32,4.32,0,0,1-1,.647,17.92,17.92,0,0,1-4.06,1.287c-2.5.59-1.444,4.448,1.063,3.857,2.827-.666,7.186-1.7,8.039-5,.955-3.684-3.077-5.983-6.162-6.328a19.178,19.178,0,0,0-4.51.263c-1.773.228-3.537.508-5.29.858a38.457,38.457,0,0,0-9.4,2.88c-2.312,1.13-.287,4.581,2.019,3.453Z"/><path class="f" d="M205.317,211.9c7.122,1.737,14.2,3.663,21.282,5.571.982.265,2.628.734,2.945,1.866.356,1.267-.857,1.631-1.825,1.627a19.42,19.42,0,0,1-4.023-.68q-2.331-.513-4.655-1.059c-3.262-.763-6.538-1.513-9.753-2.456-2.475-.726-3.532,3.133-1.064,3.857,3.324.975,6.713,1.748,10.085,2.533,1.7.4,3.41.786,5.12,1.155a15.868,15.868,0,0,0,5.486.559,5.284,5.284,0,0,0,2.832-9.188,12.036,12.036,0,0,0-5.218-2.372q-3.173-.843-6.343-1.69c-4.594-1.222-9.187-2.454-13.806-3.58-2.5-.609-3.567,3.247-1.063,3.857Z"/><path class="f" d="M224.259,230.9c1.033,1.534-1.084,3.233-2.621,3.083a53.4,53.4,0,0,1-5.409-1.039c-2.22-.455-4.435-.936-6.634-1.482-.97-.241-1.939-.492-2.9-.778-.357-.106-.713-.217-1.065-.337-.165-.057-.327-.12-.492-.176-.5-.17.192.095-.126-.049a2.061,2.061,0,0,0-2.736.718,2.015,2.015,0,0,0,.718,2.736,34.99,34.99,0,0,0,6.344,1.941c2.637.633,5.292,1.192,7.954,1.71s5.451,1.355,7.939-.172c2.709-1.662,4.426-5.279,2.478-8.174-1.43-2.124-4.9-.124-3.454,2.019Z"/><path class="f" d="M179.207,225.186c5.688,3.127,9.656,8.6,15.29,11.825a39.167,39.167,0,0,0,8.324,3.26,32.976,32.976,0,0,0,9.852,1.664c3.423-.063,7.616-2.44,6.915-6.415a2.017,2.017,0,0,0-2.461-1.4,2.043,2.043,0,0,0-1.4,2.46c-.1-.548-.034-.117-.264.21a2.822,2.822,0,0,1-.73.643,3.337,3.337,0,0,1-1.892.495,21.454,21.454,0,0,1-4.936-.5,52.123,52.123,0,0,1-9.274-2.825c-6.792-2.778-11.048-9.38-17.409-12.877-2.257-1.241-4.278,2.212-2.019,3.454Z"/><path class="f" d="M206.194,227.563c4.777,1.5,9.8,2.364,14.691,3.407,2.636.562,5.536,1.707,8.067.262,3.1-1.77,4.3-6.447,1.754-9.188-1.754-1.891-4.578.942-2.828,2.828.534.576.106,1.938-.34,2.438a2.315,2.315,0,0,1-1.368.722c.364-.061.058,0-.165-.055-.2-.048-.406-.087-.608-.13-2.1-.449-4.209-.894-6.311-1.348-3.942-.851-7.976-1.585-11.829-2.793-2.462-.772-3.515,3.089-1.063,3.857Z"/><path class="f" d="M158.642,132.737c.019,6.734-.778,13.831-4.666,19.52-3.085,4.513-7.3,8.136-10.5,12.569a37.165,37.165,0,0,0-5.07,9.957c-.823,2.445,3.039,3.494,3.857,1.063,2-5.932,5.717-10.563,9.869-15.125a61.109,61.109,0,0,0,5.21-6.316,26.866,26.866,0,0,0,3.873-8.677,52.008,52.008,0,0,0,1.429-12.991c-.008-2.573-4.008-2.578-4,0Z"/><path class="f" d="M127.658,76.918c-4.052,2.387-8.353,4.3-12.429,6.645-4.092,2.348-7.653,5.456-11.3,8.423-7.286,5.925-14.221,12.042-19.661,19.766a54.824,54.824,0,0,0-6.452,11.941c-1.765,4.616-3.141,9.405-4.468,14.162-2.694,9.661-5.227,19.422-7.44,29.205-2.488,11-4.5,22.349-4.42,33.655.017,2.573,4.017,2.579,4,0-.067-9.765,1.5-19.507,3.5-29.04,2.017-9.6,4.564-19.122,7.085-28.6,2.382-8.956,4.681-18.264,9.6-26.214,4.765-7.7,11.2-13.879,18.121-19.618,3.921-3.252,7.812-6.8,12.168-9.467,4.435-2.71,9.233-4.765,13.71-7.4,2.217-1.305.207-4.764-2.018-3.454Z"/><path class="c" d="M129.52,79.41c.08,9.242,8.432,25.77,19.29,26.567l1.036.285-.488.6c-3.248,2.185-9.5,6.882-13.283,7.851-3.08-.158-6.922-4.921-9.043-9.121-3-5.943-7.669-26.112,2.488-26.18"/><path class="c" d="M159.443,98.068c-2.321,3.463-3.956,4.353-7.457,6.507a18.243,18.243,0,0,0,5.688,4.85c3.13,1.416,2.344,1.8,4.7-.621,2.5-2.567,3.826-9.571.067-10.514Z"/><path class="f" d="M127.52,79.41A33.293,33.293,0,0,0,131.7,93.935c2.454,4.706,5.95,9.32,10.621,12a16.051,16.051,0,0,0,3.806,1.6c.754.2,1.51.27,2.276.4.332.056-.013,0-.065-.017.117.026.236.061.351.1.207.063.419.115.628.173l-.883-3.343c-.083.1-.616.714-.294.428a12.194,12.194,0,0,1-1.168.8c-1.02.708-2.037,1.419-3.065,2.115a53.018,53.018,0,0,1-6.14,3.725c-.4.195-.792.382-1.2.538-.212.081-.428.158-.646.22-.251.071.457.277-.071-.022a11.43,11.43,0,0,1-2.576-1.729,23.222,23.222,0,0,1-4.508-6.347c-.117-.235-.227-.472-.337-.711a2.773,2.773,0,0,1-.213-.514c-.26-.677-.507-1.357-.731-2.047a48.457,48.457,0,0,1-1.289-4.815,30.214,30.214,0,0,1-.739-10.108,7.939,7.939,0,0,1,1.371-3.817c-.21.276.3-.3.408-.4.4-.386-.311.181.154-.129.151-.1.305-.19.463-.278.5-.278-.211.064.111-.061a6.246,6.246,0,0,1,.642-.195,2.291,2.291,0,0,1,.921-.094c2.57-.055,2.579-4.055,0-4-9.274.2-8.666,11.927-7.538,18.353a41.867,41.867,0,0,0,3.088,10.349,27.038,27.038,0,0,0,4.84,7.108c1.65,1.74,4.342,4.038,6.941,3.353,2.813-.741,5.454-2.532,7.852-4.109,1.272-.836,2.522-1.7,3.772-2.573a12.629,12.629,0,0,0,2.785-2.215,2.027,2.027,0,0,0-.883-3.342c-1.057-.291-2.132-.369-3.19-.652a12.625,12.625,0,0,1-3.584-1.645,22.66,22.66,0,0,1-6.22-6.38c-3.184-4.677-5.772-10.541-5.863-16.247-.042-2.571-4.042-2.579-4,0Z"/><path class="f" d="M157.716,97.058q-.4.586-.818,1.153c.289-.387-.125.151-.181.219-.127.153-.256.3-.389.453a13.919,13.919,0,0,1-1.585,1.515c-.438.357.16-.106-.123.1-.148.106-.293.215-.442.319-.311.219-.628.429-.948.635-.743.478-1.5.935-2.253,1.4a2.037,2.037,0,0,0-.405,3.142,18.743,18.743,0,0,0,5.8,5.02,26.054,26.054,0,0,0,2.885,1.359,2.878,2.878,0,0,0,2.6-.318A11.557,11.557,0,0,0,164,109.988a9.706,9.706,0,0,0,1.537-2.39,12.409,12.409,0,0,0,1.227-5.939c-.185-2.381-1.331-4.634-3.79-5.3a2,2,0,1,0-1.064,3.857,2.673,2.673,0,0,0,.26.078c.235.034-.383-.213-.188-.083.012.009.389.229.39.228-.138.111-.352-.337-.174-.129a1.824,1.824,0,0,0,.141.136c.056.051.247.311.036.021s0,.015.043.081a2.244,2.244,0,0,0,.214.405c-.032-.027-.161-.482-.084-.187.017.068.046.135.067.2a4.927,4.927,0,0,1,.119.479c.012.056.014.245.049.279-.068-.067-.045-.516-.024-.129.018.343.033.682.018,1.026-.009.209-.031.417-.05.625-.022.244-.1.031.022-.152a1.333,1.333,0,0,0-.064.38c-.067.362-.153.72-.255,1.073-.053.187-.112.372-.175.556-.036.1-.26.5-.225.6-.037-.106.171-.379.053-.13-.036.076-.069.152-.1.227q-.132.276-.281.543a2.786,2.786,0,0,1-.565.876c.285-.182.237-.283.075-.106-.048.052-.093.106-.14.158-.155.17-.319.331-.478.5-.285.3-.564.6-.864.881-.138.129-.542.394.049-.015-.3.208.013.006.2-.055-.319.1.4-.014.464,0,.462.071.019-.036-.086-.056-.221-.042.513.25.208.086-.056-.03-.118-.056-.176-.084-.137-.067-.273-.137-.41-.206-.475-.24-.959-.46-1.438-.692a10.575,10.575,0,0,1-1.492-.894c-.1-.071-.2-.145-.3-.216.316.227-.16-.129-.179-.145q-.361-.3-.709-.611a22.739,22.739,0,0,1-2.459-2.6L153,106.3a41.828,41.828,0,0,0,4.575-3.075,18.762,18.762,0,0,0,3.6-4.15,2.013,2.013,0,0,0-.718-2.736,2.048,2.048,0,0,0-2.736.717Z"/><path class="f" d="M174.874,97.158c2.232,6.056,6.808,10.8,9.664,16.554,1.525,3.07,2.817,6.248,4.189,9.388.842,1.929,2.1,4.427,1.421,6.368a4.819,4.819,0,0,1-1.115,1.585,28.373,28.373,0,0,1-2.569,2.227c-1.539,1.239-3.022,2.544-4.561,3.783-3.342,2.69-6.815,5.232-10.342,7.674-1.912,1.323-3.845,2.635-5.871,3.78-.342.193-.686.382-1.038.558-.151.076-.3.148-.455.219-.212.094-.188.086.069-.025-.17.063-.215.081-.135.053a25.084,25.084,0,0,1-2.644-4.6c-1.195-2.281-4.649-.261-3.454,2.019,1.432,2.732,3.357,7.631,7.3,6.383a22.18,22.18,0,0,0,4.987-2.748c4.2-2.7,8.231-5.68,12.181-8.733,1.435-1.108,2.844-2.24,4.218-3.421,1.924-1.654,4.169-3.089,5.789-5.064,4.088-4.982.043-11.251-2.1-16.187a67.059,67.059,0,0,0-5.795-11.124c-2.135-3.148-4.553-6.146-5.883-9.754-.883-2.395-4.751-1.36-3.857,1.063Z"/><path class="f" d="M119.777,129.109c2.361,4.168,4.692,8.355,6.948,12.581,1.113,2.085,2.209,4.18,3.261,6.3.312.626.932,1.418.5,2.12-.453.741-1.972,1.194-2.722,1.589-9.395,4.95-18.737,10.162-28.69,13.928-1.149.434-2.213,1.187-3.231.251a19.427,19.427,0,0,1-2.466-2.83,29.834,29.834,0,0,1-4-7.646c-.855-2.409-4.721-1.371-3.857,1.063a34.264,34.264,0,0,0,3.939,7.951c1.426,2.081,3.411,5.083,5.98,5.794a6.444,6.444,0,0,0,4.087-.5c1.5-.558,3-1.154,4.476-1.776,2.925-1.228,5.81-2.545,8.664-3.929,5.36-2.6,10.611-5.415,15.875-8.2,2.338-1.236,5.245-2.207,5.955-5.063.648-2.611-1.295-5.268-2.439-7.481-2.819-5.456-5.806-10.825-8.833-16.168-1.268-2.24-4.725-.226-3.454,2.019Z"/><path class="f" d="M130.524,80.433c1.555-1.782,3.4-3.356,4.643-5.4a2,2,0,1,0-3.454-2.018,10.8,10.8,0,0,1-.631.917l.313-.405c-1.123,1.453-2.494,2.691-3.7,4.073a2.121,2.121,0,0,0-.586,1.414,2.034,2.034,0,0,0,.586,1.414,2.01,2.01,0,0,0,1.414.586,1.989,1.989,0,0,0,1.414-.586Z"/><path class="f" d="M167.65,152.529a82.048,82.048,0,0,0,8.156,10.558c3.594,4.24,7.3,8.427,11.3,12.29a25.924,25.924,0,0,0,4.843,4,2,2,0,0,0,2.019-3.453,17.267,17.267,0,0,1-2.726-2.149l-2.828,2.828a36.244,36.244,0,0,0,4.4,3.333,25.709,25.709,0,0,0,4.018,1.709,121.084,121.084,0,0,0,11.9,3.354c7.909,1.919,15.9,3.461,23.844,5.2a14.758,14.758,0,0,1,4.58,1.311c2.189,1.346,3.426,3.52,6.188,3.812a2.014,2.014,0,0,0,2-2,2.045,2.045,0,0,0-2-2c.372.039-.326-.134-.008,0a3.482,3.482,0,0,1-.562-.323,9.137,9.137,0,0,1-.872-.746,18.593,18.593,0,0,0-2.727-2.2,14.206,14.206,0,0,0-4.851-1.563c-3.1-.7-6.217-1.316-9.326-1.97-8.467-1.778-17.029-3.5-25.281-6.129-.921-.294-1.837-.6-2.74-.946a11.5,11.5,0,0,1-1.663-.716c-.274-.138-.547-.281-.808-.443-.182-.113-.832-.589-.15-.071-1.05-.8-2.076-1.633-3.114-2.448a2.063,2.063,0,0,0-2.828,0,2.019,2.019,0,0,0,0,2.828,22.417,22.417,0,0,0,3.535,2.774l2.019-3.453c-.26-.149-.505-.316-.751-.485-.124-.086-.244-.178-.365-.269.355.269-.164-.138-.255-.213-.742-.612-1.453-1.262-2.152-1.923-1.843-1.746-3.6-3.584-5.325-5.446-3.711-4.009-7.293-8.154-10.676-12.444a44.891,44.891,0,0,1-3.339-4.637c-1.318-2.209-4.778-.2-3.454,2.019Z"/><path class="f" d="M188.828,133.365a237.129,237.129,0,0,0,14.655,20.27c1.242,1.6,2.494,3.192,3.772,4.763.458.563.918,1.123,1.387,1.677A8.721,8.721,0,0,0,211.07,162a171.71,171.71,0,0,0,17.331,8.435c2.581,1.147,5.173,2.284,7.828,3.25a4.959,4.959,0,0,0,2.1.483,6.5,6.5,0,0,0,2.014-.541c1.281-.529,2.321-1.244,3.728-.757,2.437.845,3.484-3.018,1.063-3.857a6.211,6.211,0,0,0-4.1,0c-.564.2-1.106.458-1.651.7-.234.1-.44.207-.682.293-.136.048-.86.127-.432.173a12.883,12.883,0,0,1-2.918-1.087c-1.153-.458-2.293-.947-3.429-1.444-5.632-2.469-11.291-4.959-16.7-7.9a17,17,0,0,1-3.2-1.862,15.085,15.085,0,0,1-1.372-1.628c-1.163-1.412-2.3-2.846-3.427-4.287q-4.15-5.3-8.133-10.731c-2.374-3.23-4.694-6.485-6.8-9.894-1.353-2.184-4.815-.178-3.454,2.019Z"/><path class="f" d="M255.9,185.889c-5.314.082-9.021,4.031-13.293,6.6-4.779,2.871-10.832,2.279-16.164,2.972a2.066,2.066,0,0,0-2,2,2.012,2.012,0,0,0,2,2c5.646-.734,11.782-.259,17.012-2.87,4.043-2.019,7.647-6.626,12.445-6.7,2.571-.039,2.579-4.039,0-4Z"/><path class="f" d="M282.463,224.025a49.461,49.461,0,0,1,7.178-5.355c1.864-1.143,3.867-2.315,6.044-2.306,2.828.011,5.654.857,8.441,1.259a31.775,31.775,0,0,0,9.72-.032c6.363-1.01,12.065-3.711,17.512-7.045a47.512,47.512,0,0,0,13.668-12.462,33.111,33.111,0,0,0,6.526-18.786l-.273,1.009c2.639-4.932,2.941-10.648,2.181-16.093a48.855,48.855,0,0,0-6.246-17.522A46.334,46.334,0,0,0,334.72,132.43a40.536,40.536,0,0,0-17.926-6.9c-9.129-1.329-17.9.833-26.087,4.889-2.306,1.142-.282,4.594,2.019,3.454,6.262-3.1,13.046-5.1,20.085-4.751a39.379,39.379,0,0,1,16.267,4.458c9.291,5.006,15.86,14.908,18.961,24.794a32.57,32.57,0,0,1,1.584,14.243,19.9,19.9,0,0,1-.753,3.223c-.333,1.029-.956,1.866-1.246,2.923a14.648,14.648,0,0,0-.169,2.536c-.061.724-.156,1.439-.288,2.153a29.171,29.171,0,0,1-1.209,4.5,36.081,36.081,0,0,1-10.909,15.026,49.38,49.38,0,0,1-8,5.433,45.043,45.043,0,0,1-8.888,4.067,32.015,32.015,0,0,1-9.615,1.565c-3.315-.029-6.547-.892-9.808-1.38a13.338,13.338,0,0,0-7.627.707,38.171,38.171,0,0,0-7.823,4.834c-1.253.953-2.479,1.939-3.65,2.991-1.918,1.724.918,4.546,2.829,2.828Z"/><path class="f" d="M290.464,217.147c-2.317-5.608-3.976-12.87-.989-18.563,1.195-2.278-2.256-4.3-3.454-2.019-3.5,6.682-2.18,14.952.586,21.645a2.065,2.065,0,0,0,2.46,1.4,2.013,2.013,0,0,0,1.4-2.46Z"/><path class="f" d="M290.707,130.422c-6.077,3.012-10.974,8.322-17.472,10.506a10.58,10.58,0,0,1-4.121.653c-1.6-.114-2.932-1.07-4.5-1.326a5.749,5.749,0,0,0-6.858,4.291c-.261,1.13-.256,2.305-.539,3.431a6.507,6.507,0,0,1-2.265,3.474,52.694,52.694,0,0,0-6.046,6.091,19.7,19.7,0,0,0-4.546,8.368,14.175,14.175,0,0,0,.852,8.276,53.64,53.64,0,0,0,4.312,8.547,26.176,26.176,0,0,0,5.115,6.543c1.966,1.634,4.81-1.18,2.828-2.829a21.4,21.4,0,0,1-4.124-5.147,55.121,55.121,0,0,1-3.826-7.108,12.367,12.367,0,0,1-1.413-6.609,14.988,14.988,0,0,1,3.867-7.494,53.826,53.826,0,0,1,5.6-5.629,11.087,11.087,0,0,0,3.83-7.455,4.714,4.714,0,0,1,.586-2.375c.727-.848,2.176-.445,3.035-.109a12.737,12.737,0,0,0,8.915.382c7.065-2.2,12.264-7.794,18.788-11.027,2.307-1.144.283-4.595-2.019-3.454Z"/><path class="f" d="M305.39,144c-6.661,9.112-7.542,21.533-6.93,32.423.144,2.56,4.145,2.576,4,0-.577-10.253.106-21.815,6.384-30.4a2.014,2.014,0,0,0-.718-2.736,2.045,2.045,0,0,0-2.736.718Z"/><path class="f" d="M299.287,127.908c-1.714,3.632-1.909,7.852-1.595,11.8a30.37,30.37,0,0,0,2.862,11.462c1.177,2.29,4.629.269,3.453-2.019a26.183,26.183,0,0,1-2.315-9.443c-.253-3.165-.258-7.011,1.049-9.78a2.056,2.056,0,0,0-.717-2.736,2.017,2.017,0,0,0-2.737.717Z"/><path class="f" d="M298.135,179.181a4.252,4.252,0,0,1,4.387,3.717c.164,2.313-1.9,3.862-3.734,4.8a15.571,15.571,0,0,1-13.984-.346c-2.277-1.195-4.3,2.256-2.019,3.454,6,3.149,13.955,3.361,19.649-.629,2.9-2.033,4.852-5.465,3.8-9.063a8.364,8.364,0,0,0-8.1-5.937c-2.572.034-2.58,4.034,0,4Z"/><path class="f" d="M275.664,151.1a3.373,3.373,0,0,1,.549.571l-.313-.405a7.728,7.728,0,0,1,.933,1.649l-.2-.477a7.808,7.808,0,0,1,.55,1.873l-.072-.532a3.18,3.18,0,0,1,.02.821l.071-.532a1.47,1.47,0,0,1-.081.318,2.018,2.018,0,0,0,.2,1.541,2,2,0,0,0,2.736.717,2.29,2.29,0,0,0,.92-1.195,3.951,3.951,0,0,0,.1-1.935,8.038,8.038,0,0,0-.456-1.82,11.467,11.467,0,0,0-.914-1.938,5.71,5.71,0,0,0-1.21-1.485,2.171,2.171,0,0,0-1.414-.586,2.037,2.037,0,0,0-1.415.586,2.015,2.015,0,0,0-.585,1.414,1.941,1.941,0,0,0,.585,1.415Z"/><path class="f" d="M252.93,156.575a13.76,13.76,0,0,0,3.355,4.167,8.226,8.226,0,0,0,3.195,1.743,2.106,2.106,0,0,0,1.541-.2,2,2,0,0,0-.478-3.655,4.119,4.119,0,0,1-.673-.224l.478.2a7.242,7.242,0,0,1-1.534-.922l.4.312a11.051,11.051,0,0,1-1.883-1.91l.312.4a14.538,14.538,0,0,1-1.264-1.934,2.018,2.018,0,0,0-2.736-.717,2.041,2.041,0,0,0-.718,2.736Z"/><path class="f" d="M265.236,164.027a4.513,4.513,0,0,1-.309,1.073l.2-.478a6.321,6.321,0,0,1-.8,1.354l.313-.405a5.155,5.155,0,0,1-.834.862,2.237,2.237,0,0,0-.586,1.414,2.032,2.032,0,0,0,.586,1.414,2.012,2.012,0,0,0,1.414.586l.532-.071a2,2,0,0,0,.883-.515,4.861,4.861,0,0,0,.638-.621,9.722,9.722,0,0,0,.89-1.2,8.937,8.937,0,0,0,.65-1.356,4.374,4.374,0,0,0,.277-1,1.506,1.506,0,0,0,.036-.8,1.486,1.486,0,0,0-.237-.743,2,2,0,0,0-2.737-.718,1.932,1.932,0,0,0-.919,1.195Z"/><path class="f" d="M198.846,57.014c-.932,11.715-5.11,24.941-14.755,32.384A29.362,29.362,0,0,1,166.6,95.535c-6.473.057-12.843-2.487-18.2-6-6.163-4.05-10.931-10.735-13.677-17.525a2.063,2.063,0,0,0-2.46-1.4,2.012,2.012,0,0,0-1.4,2.46c2.724,6.736,7.07,13.411,12.81,17.948a39.129,39.129,0,0,0,20.1,8.406,32.72,32.72,0,0,0,19.817-4.843A36.547,36.547,0,0,0,197.125,79a62.338,62.338,0,0,0,5.721-21.985c.2-2.566-3.8-2.553-4,0Z"/><path class="f" d="M133.905,50.057a6.451,6.451,0,0,0-10.059.488,13.768,13.768,0,0,0-1.915,10.2,18.086,18.086,0,0,0,4.383,8.919,45.96,45.96,0,0,0,5.263,4.371,2.011,2.011,0,0,0,2.737-.718,2.05,2.05,0,0,0-.718-2.736c-1.166-.9-2.38-1.747-3.453-2.757a13.864,13.864,0,0,1-3.7-5.7,11.474,11.474,0,0,1-.185-7.6,4.017,4.017,0,0,1,1.795-2.494,2.6,2.6,0,0,1,3.025.854c1.7,1.943,4.517-.9,2.829-2.828Z"/><path class="f" d="M150.745,35.858a110.545,110.545,0,0,0,18.249,10.151,164.5,164.5,0,0,0,21.9,8.467A67.064,67.064,0,0,0,201.287,56.8a2.009,2.009,0,0,0,2-2,2.052,2.052,0,0,0-2-2c-6.213-.82-12.846-3.152-18.865-5.438a169.29,169.29,0,0,1-20.586-9.388,84.446,84.446,0,0,1-9.072-5.567,2.015,2.015,0,0,0-2.736.718,2.043,2.043,0,0,0,.717,2.736Z"/><path class="f" d="M149.511,33.621a20.725,20.725,0,0,1-3.464,4.45c-1.235,1.272-2.471,2.569-3.813,3.73a36.079,36.079,0,0,1-5.087,3.534,37.265,37.265,0,0,1-5.62,2.875,2.059,2.059,0,0,0-1.4,2.46,2.016,2.016,0,0,0,2.461,1.4,43.949,43.949,0,0,0,12.295-7.287c1.414-1.194,2.7-2.554,3.99-3.881a24.749,24.749,0,0,0,4.089-5.259c1.237-2.259-2.216-4.28-3.454-2.019Z"/><path class="f" d="M125.12,56.591a39.409,39.409,0,0,1-1.788-15,42.369,42.369,0,0,1,3.35-14.921A38.286,38.286,0,0,1,148.719,6.288a40.211,40.211,0,0,1,31.267,1.865,39.36,39.36,0,0,1,16.56,16.335c4.92,9.188,5.2,19.544,3.2,29.577-.5,2.514,3.354,3.59,3.857,1.063a59.284,59.284,0,0,0,1.357-14.285,43.992,43.992,0,0,0-3.474-15.273A43.128,43.128,0,0,0,184.645,6.186a44.152,44.152,0,0,0-33.164-4.913,42.565,42.565,0,0,0-26.406,19.732,44.922,44.922,0,0,0-5.618,18.7,43.748,43.748,0,0,0,1.806,17.949c.843,2.414,4.709,1.375,3.857-1.064Z"/><path class="f" d="M162.415,45.044,172.43,38.56a2,2,0,1,0-2.019-3.454L160.4,41.59a2,2,0,0,0,2.019,3.454Z"/><path class="f" d="M126.457,67.66a6.459,6.459,0,0,1-4.311,2.233,20.167,20.167,0,0,1-6.042-.08,30.282,30.282,0,0,1-11.759-4.125c-.193-.124-.38-.254-.569-.385-.259-.179.182.184-.209-.161a9.246,9.246,0,0,1-.7-.688c-.029-.032.2.357.032.012-.2-.424.086.288.023.065a1.257,1.257,0,0,1-.322,1.086l-.882.514c3.8-.746,6.338-4,7.52-7.511,1.389-4.117.811-8.724,1.114-12.993.466-6.563,4.815-16.818,13.02-15.427a2.06,2.06,0,0,0,2.461-1.4,2.016,2.016,0,0,0-1.4-2.46,12.63,12.63,0,0,0-10.527,2.815,21.419,21.419,0,0,0-6.064,9.086c-1.447,3.875-1.567,7.96-1.656,12.047-.076,3.443-.007,7.335-2.377,10.119a5.712,5.712,0,0,1-1.619,1.354c-.7.385-1.58.382-2.219.868a2.8,2.8,0,0,0-.94,2.806,6.225,6.225,0,0,0,2.857,3.415,32.035,32.035,0,0,0,12.633,4.733c4.839.831,11.278,1.077,14.759-3.1,1.638-1.964-1.177-4.808-2.828-2.828Z"/><path class="a" d="M365.178,231.214c-1.828-5.274-5.743-9.625-13.7-10.284-9.7-.8-41.116,2.109-46.229,3.56-9.97,2.829-12.61,15.88-11.434,25.326a9.909,9.909,0,0,0,9.7,8.749c8.735.087,22.594-.181,35.48-.181,6.628,0,20.5-.845,23.545-2.378C368.572,252.968,368.954,242.11,365.178,231.214Z"/><path class="f" d="M367.106,230.682a17.394,17.394,0,0,0-5.3-7.942,18.769,18.769,0,0,0-10.491-3.823,114.374,114.374,0,0,0-15.651.295q-9.56.576-19.088,1.615c-2.592.283-5.182.593-7.762.973a26.352,26.352,0,0,0-4.846,1c-6.624,2.3-10.3,8.7-11.658,15.264-1.346,6.51-1.838,15.338,3.931,19.906,3.175,2.514,6.72,2.611,10.59,2.616,4.286,0,8.571-.036,12.856-.075,8.549-.077,17.13.108,25.671-.294,3.535-.166,7.073-.41,10.587-.835,2.506-.3,5.293-.509,7.594-1.645,7.026-3.469,6.579-13.741,5.4-20.158a48.59,48.59,0,0,0-1.835-6.893c-.827-2.422-4.692-1.382-3.857,1.063a39.649,39.649,0,0,1,2.374,12.411c.024,2.86-.3,6.172-2.121,8.514a5.711,5.711,0,0,1-1.171,1.132,7.544,7.544,0,0,1-.808.477c-.287.156.064-.022.11-.04-.12.047-.243.092-.366.131a23.392,23.392,0,0,1-3.04.684c-3.029.506-6.109.743-9.171.949-7.446.5-14.9.38-22.364.442-4.322.036-8.645.082-12.968.112-3.592.025-7.322.3-10.9-.023a7.931,7.931,0,0,1-6.571-5.093c-1-2.72-.815-6.092-.573-8.933.464-5.472,2.405-11.908,7.393-14.912a13.844,13.844,0,0,1,4.98-1.651c2.149-.369,3.688-.556,5.819-.81,5.729-.682,11.479-1.2,17.232-1.619,5.461-.4,10.946-.741,16.424-.723,5.171.017,10.721.718,13.895,5.334a15.53,15.53,0,0,1,1.828,3.618C364.1,234.155,367.97,233.117,367.106,230.682Z"/><path class="f" d="M162.772,83.065a9.412,9.412,0,0,0,4.9,2.553,12.226,12.226,0,0,0,4.547.243,9.056,9.056,0,0,0,2.7-.992,2.013,2.013,0,0,0,.717-2.736,2.048,2.048,0,0,0-2.736-.718c-.146.075-.291.15-.438.222-.069.033-.14.064-.208.1-.327.166.481-.177.125-.051-.179.063-.356.128-.539.179a3.172,3.172,0,0,0-.623.132c.138-.078.435-.048.08-.021-.117.01-.235.016-.352.019-.293.007-.586,0-.878-.025-.15-.011-.3-.027-.448-.043-.59-.063.391.076-.167-.026-.29-.053-.58-.105-.867-.172a10.614,10.614,0,0,1-1.385-.418c-.209-.081-.323-.238.039.02a1.737,1.737,0,0,0-.251-.117q-.252-.123-.494-.264c-.13-.076-.258-.157-.382-.242-.066-.045-.13-.1-.2-.142.464.251.321.26.169.127a6.019,6.019,0,0,1-.477-.454,2.016,2.016,0,0,0-2.829,0,2.044,2.044,0,0,0,0,2.828Z"/><path class="f" d="M170.5,69.14c.01.07.019.14.029.21l-.072-.531q.108.8.187,1.6a7.351,7.351,0,0,1,.076,1.539l.071-.532a1.219,1.219,0,0,1-.057.231l.2-.478a.808.808,0,0,1-.088.154l.313-.4a.4.4,0,0,1-.061.062l.4-.312a.589.589,0,0,1-.115.07l.478-.2a2.117,2.117,0,0,1-.44.13l.531-.071a1.523,1.523,0,0,1-.4,0l.532.071c-.194-.031-.375-.1-.564-.152a2.093,2.093,0,0,0-1.542.2,2,2,0,0,0,.478,3.655c.19.049.371.119.565.152a3.459,3.459,0,0,0,1.766-.079,2.845,2.845,0,0,0,1.165-.668,2.684,2.684,0,0,0,.631-1.069,3.258,3.258,0,0,0,.134-1.235c-.062-1.141-.208-2.277-.368-3.408a2,2,0,0,0-.919-1.195,2,2,0,0,0-2.737.717l-.2.478a2,2,0,0,0,0,1.064Z"/><path class="f" d="M153.95,58.406c-.746,1.7-.863,5.792,2.434,6.524,4.414.486,5.218-4.387,4-6.863C159.388,56.04,155.9,54.841,153.95,58.406Z"/><path class="f" d="M181.669,60.52c-.766,1.627-1.092,5.6,1.844,6.408,3.958.6,4.946-4.1,3.981-6.543C186.7,58.387,183.624,57.117,181.669,60.52Z"/></svg>